<mxfile host="drawio-plugin" modified="2024-03-04T08:12:59.860Z" agent="5.0 (Windows NT 10.0; Win64; x64) AppleWebKit/537.36 (KHTML, like Gecko) Chrome/111.0.0.0 Safari/537.36" etag="qIEYMArUz9lBVqZ8uk8O" version="20.5.3" type="embed"><diagram id="C5RBs43oDa-KdzZeNtuy" name="Page-1"><mxGraphModel dx="2199" dy="1650" grid="0" gridSize="10" guides="1" tooltips="1" connect="1" arrows="1" fold="1" page="1" pageScale="1" pageWidth="827" pageHeight="1169" math="0" shadow="0"><root><mxCell id="WIyWlLk6GJQsqaUBKTNV-0"/><mxCell id="WIyWlLk6GJQsqaUBKTNV-1" parent="WIyWlLk6GJQsqaUBKTNV-0"/><mxCell id="zBzXpyPRaQ_3X7a6PqnA-106" style="edgeStyle=orthogonalEdgeStyle;rounded=0;orthogonalLoop=1;jettySize=auto;html=1;exitX=0.75;exitY=0;exitDx=0;exitDy=0;entryX=0.282;entryY=0.693;entryDx=0;entryDy=0;entryPerimeter=0;" parent="WIyWlLk6GJQsqaUBKTNV-1" source="zBzXpyPRaQ_3X7a6PqnA-0" target="zBzXpyPRaQ_3X7a6PqnA-97" edge="1"><mxGeometry relative="1" as="geometry"><mxPoint x="-110" y="190" as="targetPoint"/></mxGeometry></mxCell><mxCell id="zBzXpyPRaQ_3X7a6PqnA-0" value="ParkingLot&lt;span style=&quot;white-space: pre;&quot;&gt;&#9;&lt;/span&gt;" style="swimlane;fontStyle=1;align=center;verticalAlign=top;childLayout=stackLayout;horizontal=1;startSize=26;horizontalStack=0;resizeParent=1;resizeParentMax=0;resizeLast=0;collapsible=1;marginBottom=0;whiteSpace=wrap;html=1;" parent="WIyWlLk6GJQsqaUBKTNV-1" vertex="1"><mxGeometry x="-900" y="-136" width="246" height="238" as="geometry"><mxRectangle x="-710" y="130" width="120" height="30" as="alternateBounds"/></mxGeometry></mxCell><mxCell id="zBzXpyPRaQ_3X7a6PqnA-1" value="- name:String&lt;br&gt;&lt;span style=&quot;white-space: pre;&quot;&gt;&#9;&lt;/span&gt;" style="text;strokeColor=none;fillColor=none;align=left;verticalAlign=top;spacingLeft=4;spacingRight=4;overflow=hidden;rotatable=0;points=[[0,0.5],[1,0.5]];portConstraint=eastwest;whiteSpace=wrap;html=1;" parent="zBzXpyPRaQ_3X7a6PqnA-0" vertex="1"><mxGeometry y="26" width="246" height="24" as="geometry"/></mxCell><mxCell id="zBzXpyPRaQ_3X7a6PqnA-4" value="- address: String" style="text;strokeColor=none;fillColor=none;align=left;verticalAlign=top;spacingLeft=4;spacingRight=4;overflow=hidden;rotatable=0;points=[[0,0.5],[1,0.5]];portConstraint=eastwest;whiteSpace=wrap;html=1;" parent="zBzXpyPRaQ_3X7a6PqnA-0" vertex="1"><mxGeometry y="50" width="246" height="26" as="geometry"/></mxCell><mxCell id="zBzXpyPRaQ_3X7a6PqnA-5" value="- parkingFloors: List&amp;lt;ParkingFloor&amp;gt;" style="text;strokeColor=none;fillColor=none;align=left;verticalAlign=top;spacingLeft=4;spacingRight=4;overflow=hidden;rotatable=0;points=[[0,0.5],[1,0.5]];portConstraint=eastwest;whiteSpace=wrap;html=1;" parent="zBzXpyPRaQ_3X7a6PqnA-0" vertex="1"><mxGeometry y="76" width="246" height="24" as="geometry"/></mxCell><mxCell id="zBzXpyPRaQ_3X7a6PqnA-6" value="- parkingLotStatus: &lt;b&gt;ParkingLotStatus&lt;/b&gt;" style="text;strokeColor=none;fillColor=none;align=left;verticalAlign=top;spacingLeft=4;spacingRight=4;overflow=hidden;rotatable=0;points=[[0,0.5],[1,0.5]];portConstraint=eastwest;whiteSpace=wrap;html=1;" parent="zBzXpyPRaQ_3X7a6PqnA-0" vertex="1"><mxGeometry y="100" width="246" height="26" as="geometry"/></mxCell><mxCell id="zBzXpyPRaQ_3X7a6PqnA-7" value="- billGeneration :&lt;i&gt; BillGenerationStrategy&lt;/i&gt;" style="text;strokeColor=none;fillColor=none;align=left;verticalAlign=top;spacingLeft=4;spacingRight=4;overflow=hidden;rotatable=0;points=[[0,0.5],[1,0.5]];portConstraint=eastwest;whiteSpace=wrap;html=1;" parent="zBzXpyPRaQ_3X7a6PqnA-0" vertex="1"><mxGeometry y="126" width="246" height="26" as="geometry"/></mxCell><mxCell id="zBzXpyPRaQ_3X7a6PqnA-8" value="- spotAlocation: &lt;i&gt;SpotAllocationStrategy&lt;/i&gt;" style="text;strokeColor=none;fillColor=none;align=left;verticalAlign=top;spacingLeft=4;spacingRight=4;overflow=hidden;rotatable=0;points=[[0,0.5],[1,0.5]];portConstraint=eastwest;whiteSpace=wrap;html=1;" parent="zBzXpyPRaQ_3X7a6PqnA-0" vertex="1"><mxGeometry y="152" width="246" height="26" as="geometry"/></mxCell><mxCell id="zBzXpyPRaQ_3X7a6PqnA-9" value="- capacity: int" style="text;strokeColor=none;fillColor=none;align=left;verticalAlign=top;spacingLeft=4;spacingRight=4;overflow=hidden;rotatable=0;points=[[0,0.5],[1,0.5]];portConstraint=eastwest;whiteSpace=wrap;html=1;" parent="zBzXpyPRaQ_3X7a6PqnA-0" vertex="1"><mxGeometry y="178" width="246" height="26" as="geometry"/></mxCell><mxCell id="zBzXpyPRaQ_3X7a6PqnA-10" value="- vehicalSupported: List&amp;lt;&lt;b&gt;VehicalType&lt;/b&gt;&amp;gt;" style="text;strokeColor=none;fillColor=none;align=left;verticalAlign=top;spacingLeft=4;spacingRight=4;overflow=hidden;rotatable=0;points=[[0,0.5],[1,0.5]];portConstraint=eastwest;whiteSpace=wrap;html=1;" parent="zBzXpyPRaQ_3X7a6PqnA-0" vertex="1"><mxGeometry y="204" width="246" height="26" as="geometry"/></mxCell><mxCell id="zBzXpyPRaQ_3X7a6PqnA-2" value="" style="line;strokeWidth=1;fillColor=none;align=left;verticalAlign=middle;spacingTop=-1;spacingLeft=3;spacingRight=3;rotatable=0;labelPosition=right;points=[];portConstraint=eastwest;strokeColor=inherit;" parent="zBzXpyPRaQ_3X7a6PqnA-0" vertex="1"><mxGeometry y="230" width="246" height="8" as="geometry"/></mxCell><mxCell id="zBzXpyPRaQ_3X7a6PqnA-107" style="edgeStyle=orthogonalEdgeStyle;rounded=0;orthogonalLoop=1;jettySize=auto;html=1;exitX=0.25;exitY=0;exitDx=0;exitDy=0;entryX=0.75;entryY=1;entryDx=0;entryDy=0;" parent="WIyWlLk6GJQsqaUBKTNV-1" source="zBzXpyPRaQ_3X7a6PqnA-11" target="zBzXpyPRaQ_3X7a6PqnA-88" edge="1"><mxGeometry relative="1" as="geometry"><Array as="points"><mxPoint x="-827" y="130"/><mxPoint x="-630" y="130"/><mxPoint x="-630" y="85"/><mxPoint x="-20" y="85"/></Array></mxGeometry></mxCell><mxCell id="zBzXpyPRaQ_3X7a6PqnA-11" value="ParkingFloor&lt;span style=&quot;white-space: pre;&quot;&gt;&#9;&lt;/span&gt;" style="swimlane;fontStyle=1;align=center;verticalAlign=top;childLayout=stackLayout;horizontal=1;startSize=26;horizontalStack=0;resizeParent=1;resizeParentMax=0;resizeLast=0;collapsible=1;marginBottom=0;whiteSpace=wrap;html=1;" parent="WIyWlLk6GJQsqaUBKTNV-1" vertex="1"><mxGeometry x="-877" y="180" width="200" height="160" as="geometry"><mxRectangle x="-760" y="350" width="120" height="30" as="alternateBounds"/></mxGeometry></mxCell><mxCell id="zBzXpyPRaQ_3X7a6PqnA-12" value="- floorNumber:int" style="text;strokeColor=none;fillColor=none;align=left;verticalAlign=top;spacingLeft=4;spacingRight=4;overflow=hidden;rotatable=0;points=[[0,0.5],[1,0.5]];portConstraint=eastwest;whiteSpace=wrap;html=1;" parent="zBzXpyPRaQ_3X7a6PqnA-11" vertex="1"><mxGeometry y="26" width="200" height="24" as="geometry"/></mxCell><mxCell id="zBzXpyPRaQ_3X7a6PqnA-13" value="- spotList:List&amp;lt;ParkingSpot&amp;gt;" style="text;strokeColor=none;fillColor=none;align=left;verticalAlign=top;spacingLeft=4;spacingRight=4;overflow=hidden;rotatable=0;points=[[0,0.5],[1,0.5]];portConstraint=eastwest;whiteSpace=wrap;html=1;" parent="zBzXpyPRaQ_3X7a6PqnA-11" vertex="1"><mxGeometry y="50" width="200" height="26" as="geometry"/></mxCell><mxCell id="zBzXpyPRaQ_3X7a6PqnA-14" value="- entryGate:Gate" style="text;strokeColor=none;fillColor=none;align=left;verticalAlign=top;spacingLeft=4;spacingRight=4;overflow=hidden;rotatable=0;points=[[0,0.5],[1,0.5]];portConstraint=eastwest;whiteSpace=wrap;html=1;" parent="zBzXpyPRaQ_3X7a6PqnA-11" vertex="1"><mxGeometry y="76" width="200" height="24" as="geometry"/></mxCell><mxCell id="zBzXpyPRaQ_3X7a6PqnA-15" value="- exitGate:Gate" style="text;strokeColor=none;fillColor=none;align=left;verticalAlign=top;spacingLeft=4;spacingRight=4;overflow=hidden;rotatable=0;points=[[0,0.5],[1,0.5]];portConstraint=eastwest;whiteSpace=wrap;html=1;" parent="zBzXpyPRaQ_3X7a6PqnA-11" vertex="1"><mxGeometry y="100" width="200" height="26" as="geometry"/></mxCell><mxCell id="zBzXpyPRaQ_3X7a6PqnA-16" value="- floorStatus:&lt;b&gt;ParkingFloorStatus&lt;/b&gt;" style="text;strokeColor=none;fillColor=none;align=left;verticalAlign=top;spacingLeft=4;spacingRight=4;overflow=hidden;rotatable=0;points=[[0,0.5],[1,0.5]];portConstraint=eastwest;whiteSpace=wrap;html=1;" parent="zBzXpyPRaQ_3X7a6PqnA-11" vertex="1"><mxGeometry y="126" width="200" height="26" as="geometry"/></mxCell><mxCell id="zBzXpyPRaQ_3X7a6PqnA-20" value="" style="line;strokeWidth=1;fillColor=none;align=left;verticalAlign=middle;spacingTop=-1;spacingLeft=3;spacingRight=3;rotatable=0;labelPosition=right;points=[];portConstraint=eastwest;strokeColor=inherit;" parent="zBzXpyPRaQ_3X7a6PqnA-11" vertex="1"><mxGeometry y="152" width="200" height="8" as="geometry"/></mxCell><mxCell id="zBzXpyPRaQ_3X7a6PqnA-101" style="edgeStyle=orthogonalEdgeStyle;rounded=0;orthogonalLoop=1;jettySize=auto;html=1;exitX=0.75;exitY=0;exitDx=0;exitDy=0;entryX=0;entryY=1;entryDx=0;entryDy=0;" parent="WIyWlLk6GJQsqaUBKTNV-1" source="zBzXpyPRaQ_3X7a6PqnA-22" target="zBzXpyPRaQ_3X7a6PqnA-88" edge="1"><mxGeometry relative="1" as="geometry"><mxPoint x="-423.2727272727275" y="230" as="targetPoint"/></mxGeometry></mxCell><mxCell id="zBzXpyPRaQ_3X7a6PqnA-22" value="ParkingSpot" style="swimlane;fontStyle=1;align=center;verticalAlign=top;childLayout=stackLayout;horizontal=1;startSize=26;horizontalStack=0;resizeParent=1;resizeParentMax=0;resizeLast=0;collapsible=1;marginBottom=0;whiteSpace=wrap;html=1;" parent="WIyWlLk6GJQsqaUBKTNV-1" vertex="1"><mxGeometry x="-350" y="110" width="250" height="134" as="geometry"><mxRectangle x="-260" y="460" width="110" height="30" as="alternateBounds"/></mxGeometry></mxCell><mxCell id="zBzXpyPRaQ_3X7a6PqnA-23" value="- spotNumber:int" style="text;strokeColor=none;fillColor=none;align=left;verticalAlign=top;spacingLeft=4;spacingRight=4;overflow=hidden;rotatable=0;points=[[0,0.5],[1,0.5]];portConstraint=eastwest;whiteSpace=wrap;html=1;" parent="zBzXpyPRaQ_3X7a6PqnA-22" vertex="1"><mxGeometry y="26" width="250" height="24" as="geometry"/></mxCell><mxCell id="zBzXpyPRaQ_3X7a6PqnA-24" value="- vehical:Vehical" style="text;strokeColor=none;fillColor=none;align=left;verticalAlign=top;spacingLeft=4;spacingRight=4;overflow=hidden;rotatable=0;points=[[0,0.5],[1,0.5]];portConstraint=eastwest;whiteSpace=wrap;html=1;" parent="zBzXpyPRaQ_3X7a6PqnA-22" vertex="1"><mxGeometry y="50" width="250" height="26" as="geometry"/></mxCell><mxCell id="zBzXpyPRaQ_3X7a6PqnA-25" value="- vehicalType: &lt;b&gt;VehicalType&lt;/b&gt;" style="text;strokeColor=none;fillColor=none;align=left;verticalAlign=top;spacingLeft=4;spacingRight=4;overflow=hidden;rotatable=0;points=[[0,0.5],[1,0.5]];portConstraint=eastwest;whiteSpace=wrap;html=1;" parent="zBzXpyPRaQ_3X7a6PqnA-22" vertex="1"><mxGeometry y="76" width="250" height="24" as="geometry"/></mxCell><mxCell id="zBzXpyPRaQ_3X7a6PqnA-26" value="- parkingSpotStatus:&lt;b&gt;ParkingSpotStatus&lt;/b&gt;" style="text;strokeColor=none;fillColor=none;align=left;verticalAlign=top;spacingLeft=4;spacingRight=4;overflow=hidden;rotatable=0;points=[[0,0.5],[1,0.5]];portConstraint=eastwest;whiteSpace=wrap;html=1;" parent="zBzXpyPRaQ_3X7a6PqnA-22" vertex="1"><mxGeometry y="100" width="250" height="26" as="geometry"/></mxCell><mxCell id="zBzXpyPRaQ_3X7a6PqnA-31" value="" style="line;strokeWidth=1;fillColor=none;align=left;verticalAlign=middle;spacingTop=-1;spacingLeft=3;spacingRight=3;rotatable=0;labelPosition=right;points=[];portConstraint=eastwest;strokeColor=inherit;" parent="zBzXpyPRaQ_3X7a6PqnA-22" vertex="1"><mxGeometry y="126" width="250" height="8" as="geometry"/></mxCell><mxCell id="zBzXpyPRaQ_3X7a6PqnA-110" style="edgeStyle=orthogonalEdgeStyle;rounded=0;orthogonalLoop=1;jettySize=auto;html=1;exitX=0.25;exitY=0;exitDx=0;exitDy=0;entryX=1;entryY=0.5;entryDx=0;entryDy=0;" parent="WIyWlLk6GJQsqaUBKTNV-1" source="zBzXpyPRaQ_3X7a6PqnA-33" target="zBzXpyPRaQ_3X7a6PqnA-91" edge="1"><mxGeometry relative="1" as="geometry"/></mxCell><mxCell id="zBzXpyPRaQ_3X7a6PqnA-33" value="Ticket" style="swimlane;fontStyle=1;align=center;verticalAlign=top;childLayout=stackLayout;horizontal=1;startSize=26;horizontalStack=0;resizeParent=1;resizeParentMax=0;resizeLast=0;collapsible=1;marginBottom=0;whiteSpace=wrap;html=1;" parent="WIyWlLk6GJQsqaUBKTNV-1" vertex="1"><mxGeometry x="310" y="-10" width="160" height="136" as="geometry"><mxRectangle x="240" y="50" width="70" height="30" as="alternateBounds"/></mxGeometry></mxCell><mxCell id="zBzXpyPRaQ_3X7a6PqnA-35" value="- entryTime: LocalDateTime" style="text;strokeColor=none;fillColor=none;align=left;verticalAlign=top;spacingLeft=4;spacingRight=4;overflow=hidden;rotatable=0;points=[[0,0.5],[1,0.5]];portConstraint=eastwest;whiteSpace=wrap;html=1;" parent="zBzXpyPRaQ_3X7a6PqnA-33" vertex="1"><mxGeometry y="26" width="160" height="26" as="geometry"/></mxCell><mxCell id="zBzXpyPRaQ_3X7a6PqnA-36" value="- entryGate: Gate" style="text;strokeColor=none;fillColor=none;align=left;verticalAlign=top;spacingLeft=4;spacingRight=4;overflow=hidden;rotatable=0;points=[[0,0.5],[1,0.5]];portConstraint=eastwest;whiteSpace=wrap;html=1;" parent="zBzXpyPRaQ_3X7a6PqnA-33" vertex="1"><mxGeometry y="52" width="160" height="24" as="geometry"/></mxCell><mxCell id="zBzXpyPRaQ_3X7a6PqnA-37" value="- parkingSpot: ParkingSpot" style="text;strokeColor=none;fillColor=none;align=left;verticalAlign=top;spacingLeft=4;spacingRight=4;overflow=hidden;rotatable=0;points=[[0,0.5],[1,0.5]];portConstraint=eastwest;whiteSpace=wrap;html=1;" parent="zBzXpyPRaQ_3X7a6PqnA-33" vertex="1"><mxGeometry y="76" width="160" height="26" as="geometry"/></mxCell><mxCell id="zBzXpyPRaQ_3X7a6PqnA-38" value="- vehical: Vehical" style="text;strokeColor=none;fillColor=none;align=left;verticalAlign=top;spacingLeft=4;spacingRight=4;overflow=hidden;rotatable=0;points=[[0,0.5],[1,0.5]];portConstraint=eastwest;whiteSpace=wrap;html=1;" parent="zBzXpyPRaQ_3X7a6PqnA-33" vertex="1"><mxGeometry y="102" width="160" height="26" as="geometry"/></mxCell><mxCell id="zBzXpyPRaQ_3X7a6PqnA-42" value="" style="line;strokeWidth=1;fillColor=none;align=left;verticalAlign=middle;spacingTop=-1;spacingLeft=3;spacingRight=3;rotatable=0;labelPosition=right;points=[];portConstraint=eastwest;strokeColor=inherit;" parent="zBzXpyPRaQ_3X7a6PqnA-33" vertex="1"><mxGeometry y="128" width="160" height="8" as="geometry"/></mxCell><mxCell id="zBzXpyPRaQ_3X7a6PqnA-55" value="Bill" style="swimlane;fontStyle=1;align=center;verticalAlign=top;childLayout=stackLayout;horizontal=1;startSize=26;horizontalStack=0;resizeParent=1;resizeParentMax=0;resizeLast=0;collapsible=1;marginBottom=0;whiteSpace=wrap;html=1;" parent="WIyWlLk6GJQsqaUBKTNV-1" vertex="1"><mxGeometry x="100" y="170" width="160" height="186" as="geometry"><mxRectangle x="100" y="170" width="60" height="30" as="alternateBounds"/></mxGeometry></mxCell><mxCell id="zBzXpyPRaQ_3X7a6PqnA-56" value="- billNumber: int&lt;span style=&quot;white-space: pre;&quot;&gt;&#9;&lt;/span&gt;" style="text;strokeColor=none;fillColor=none;align=left;verticalAlign=top;spacingLeft=4;spacingRight=4;overflow=hidden;rotatable=0;points=[[0,0.5],[1,0.5]];portConstraint=eastwest;whiteSpace=wrap;html=1;" parent="zBzXpyPRaQ_3X7a6PqnA-55" vertex="1"><mxGeometry y="26" width="160" height="24" as="geometry"/></mxCell><mxCell id="zBzXpyPRaQ_3X7a6PqnA-57" value="- ticket: Ticket" style="text;strokeColor=none;fillColor=none;align=left;verticalAlign=top;spacingLeft=4;spacingRight=4;overflow=hidden;rotatable=0;points=[[0,0.5],[1,0.5]];portConstraint=eastwest;whiteSpace=wrap;html=1;" parent="zBzXpyPRaQ_3X7a6PqnA-55" vertex="1"><mxGeometry y="50" width="160" height="26" as="geometry"/></mxCell><mxCell id="zBzXpyPRaQ_3X7a6PqnA-58" value="- amount: double" style="text;strokeColor=none;fillColor=none;align=left;verticalAlign=top;spacingLeft=4;spacingRight=4;overflow=hidden;rotatable=0;points=[[0,0.5],[1,0.5]];portConstraint=eastwest;whiteSpace=wrap;html=1;" parent="zBzXpyPRaQ_3X7a6PqnA-55" vertex="1"><mxGeometry y="76" width="160" height="24" as="geometry"/></mxCell><mxCell id="zBzXpyPRaQ_3X7a6PqnA-59" value="- exitTime: LocalDateTime" style="text;strokeColor=none;fillColor=none;align=left;verticalAlign=top;spacingLeft=4;spacingRight=4;overflow=hidden;rotatable=0;points=[[0,0.5],[1,0.5]];portConstraint=eastwest;whiteSpace=wrap;html=1;" parent="zBzXpyPRaQ_3X7a6PqnA-55" vertex="1"><mxGeometry y="100" width="160" height="26" as="geometry"/></mxCell><mxCell id="zBzXpyPRaQ_3X7a6PqnA-60" value="- exitGate: Gate" style="text;strokeColor=none;fillColor=none;align=left;verticalAlign=top;spacingLeft=4;spacingRight=4;overflow=hidden;rotatable=0;points=[[0,0.5],[1,0.5]];portConstraint=eastwest;whiteSpace=wrap;html=1;" parent="zBzXpyPRaQ_3X7a6PqnA-55" vertex="1"><mxGeometry y="126" width="160" height="26" as="geometry"/></mxCell><mxCell id="zBzXpyPRaQ_3X7a6PqnA-61" value="- billStatus: &lt;b&gt;BillStatus&lt;/b&gt;" style="text;strokeColor=none;fillColor=none;align=left;verticalAlign=top;spacingLeft=4;spacingRight=4;overflow=hidden;rotatable=0;points=[[0,0.5],[1,0.5]];portConstraint=eastwest;whiteSpace=wrap;html=1;" parent="zBzXpyPRaQ_3X7a6PqnA-55" vertex="1"><mxGeometry y="152" width="160" height="26" as="geometry"/></mxCell><mxCell id="zBzXpyPRaQ_3X7a6PqnA-64" value="" style="line;strokeWidth=1;fillColor=none;align=left;verticalAlign=middle;spacingTop=-1;spacingLeft=3;spacingRight=3;rotatable=0;labelPosition=right;points=[];portConstraint=eastwest;strokeColor=inherit;" parent="zBzXpyPRaQ_3X7a6PqnA-55" vertex="1"><mxGeometry y="178" width="160" height="8" as="geometry"/></mxCell><mxCell id="zBzXpyPRaQ_3X7a6PqnA-112" style="edgeStyle=orthogonalEdgeStyle;rounded=0;orthogonalLoop=1;jettySize=auto;html=1;exitX=0.25;exitY=0;exitDx=0;exitDy=0;entryX=1;entryY=0.5;entryDx=0;entryDy=0;" parent="WIyWlLk6GJQsqaUBKTNV-1" source="zBzXpyPRaQ_3X7a6PqnA-66" target="zBzXpyPRaQ_3X7a6PqnA-89" edge="1"><mxGeometry relative="1" as="geometry"/></mxCell><mxCell id="zBzXpyPRaQ_3X7a6PqnA-66" value="Payment" style="swimlane;fontStyle=1;align=center;verticalAlign=top;childLayout=stackLayout;horizontal=1;startSize=26;horizontalStack=0;resizeParent=1;resizeParentMax=0;resizeLast=0;collapsible=1;marginBottom=0;whiteSpace=wrap;html=1;" parent="WIyWlLk6GJQsqaUBKTNV-1" vertex="1"><mxGeometry x="480" y="280" width="220" height="186" as="geometry"><mxRectangle x="420" y="-136" width="90" height="30" as="alternateBounds"/></mxGeometry></mxCell><mxCell id="zBzXpyPRaQ_3X7a6PqnA-67" value="- referenceNumber: String" style="text;strokeColor=none;fillColor=none;align=left;verticalAlign=top;spacingLeft=4;spacingRight=4;overflow=hidden;rotatable=0;points=[[0,0.5],[1,0.5]];portConstraint=eastwest;whiteSpace=wrap;html=1;" parent="zBzXpyPRaQ_3X7a6PqnA-66" vertex="1"><mxGeometry y="26" width="220" height="24" as="geometry"/></mxCell><mxCell id="zBzXpyPRaQ_3X7a6PqnA-68" value="- amount: Double&lt;span style=&quot;white-space: pre;&quot;&gt;&#9;&lt;/span&gt;" style="text;strokeColor=none;fillColor=none;align=left;verticalAlign=top;spacingLeft=4;spacingRight=4;overflow=hidden;rotatable=0;points=[[0,0.5],[1,0.5]];portConstraint=eastwest;whiteSpace=wrap;html=1;" parent="zBzXpyPRaQ_3X7a6PqnA-66" vertex="1"><mxGeometry y="50" width="220" height="26" as="geometry"/></mxCell><mxCell id="zBzXpyPRaQ_3X7a6PqnA-69" value="- paymentMode: &lt;b&gt;PaymentMode&lt;/b&gt;" style="text;strokeColor=none;fillColor=none;align=left;verticalAlign=top;spacingLeft=4;spacingRight=4;overflow=hidden;rotatable=0;points=[[0,0.5],[1,0.5]];portConstraint=eastwest;whiteSpace=wrap;html=1;" parent="zBzXpyPRaQ_3X7a6PqnA-66" vertex="1"><mxGeometry y="76" width="220" height="24" as="geometry"/></mxCell><mxCell id="zBzXpyPRaQ_3X7a6PqnA-70" value="- paymentStatus: &lt;b&gt;PaymentStatus&lt;/b&gt;" style="text;strokeColor=none;fillColor=none;align=left;verticalAlign=top;spacingLeft=4;spacingRight=4;overflow=hidden;rotatable=0;points=[[0,0.5],[1,0.5]];portConstraint=eastwest;whiteSpace=wrap;html=1;" parent="zBzXpyPRaQ_3X7a6PqnA-66" vertex="1"><mxGeometry y="100" width="220" height="26" as="geometry"/></mxCell><mxCell id="zBzXpyPRaQ_3X7a6PqnA-71" value="- paymentTime: LocalDateTime" style="text;strokeColor=none;fillColor=none;align=left;verticalAlign=top;spacingLeft=4;spacingRight=4;overflow=hidden;rotatable=0;points=[[0,0.5],[1,0.5]];portConstraint=eastwest;whiteSpace=wrap;html=1;" parent="zBzXpyPRaQ_3X7a6PqnA-66" vertex="1"><mxGeometry y="126" width="220" height="26" as="geometry"/></mxCell><mxCell id="zBzXpyPRaQ_3X7a6PqnA-72" value="- bill: Bill" style="text;strokeColor=none;fillColor=none;align=left;verticalAlign=top;spacingLeft=4;spacingRight=4;overflow=hidden;rotatable=0;points=[[0,0.5],[1,0.5]];portConstraint=eastwest;whiteSpace=wrap;html=1;" parent="zBzXpyPRaQ_3X7a6PqnA-66" vertex="1"><mxGeometry y="152" width="220" height="26" as="geometry"/></mxCell><mxCell id="zBzXpyPRaQ_3X7a6PqnA-75" value="" style="line;strokeWidth=1;fillColor=none;align=left;verticalAlign=middle;spacingTop=-1;spacingLeft=3;spacingRight=3;rotatable=0;labelPosition=right;points=[];portConstraint=eastwest;strokeColor=inherit;" parent="zBzXpyPRaQ_3X7a6PqnA-66" vertex="1"><mxGeometry y="178" width="220" height="8" as="geometry"/></mxCell><mxCell id="zBzXpyPRaQ_3X7a6PqnA-77" value="Vehical" style="swimlane;fontStyle=1;align=center;verticalAlign=top;childLayout=stackLayout;horizontal=1;startSize=26;horizontalStack=0;resizeParent=1;resizeParentMax=0;resizeLast=0;collapsible=1;marginBottom=0;whiteSpace=wrap;html=1;" parent="WIyWlLk6GJQsqaUBKTNV-1" vertex="1"><mxGeometry x="-560" y="544" width="160" height="108" as="geometry"/></mxCell><mxCell id="zBzXpyPRaQ_3X7a6PqnA-78" value="- vehicalNumber:String" style="text;strokeColor=none;fillColor=none;align=left;verticalAlign=top;spacingLeft=4;spacingRight=4;overflow=hidden;rotatable=0;points=[[0,0.5],[1,0.5]];portConstraint=eastwest;whiteSpace=wrap;html=1;" parent="zBzXpyPRaQ_3X7a6PqnA-77" vertex="1"><mxGeometry y="26" width="160" height="24" as="geometry"/></mxCell><mxCell id="zBzXpyPRaQ_3X7a6PqnA-79" value="- vehicalType: &lt;b&gt;VehicalType&lt;/b&gt;" style="text;strokeColor=none;fillColor=none;align=left;verticalAlign=top;spacingLeft=4;spacingRight=4;overflow=hidden;rotatable=0;points=[[0,0.5],[1,0.5]];portConstraint=eastwest;whiteSpace=wrap;html=1;" parent="zBzXpyPRaQ_3X7a6PqnA-77" vertex="1"><mxGeometry y="50" width="160" height="26" as="geometry"/></mxCell><mxCell id="zBzXpyPRaQ_3X7a6PqnA-80" value="- color:String" style="text;strokeColor=none;fillColor=none;align=left;verticalAlign=top;spacingLeft=4;spacingRight=4;overflow=hidden;rotatable=0;points=[[0,0.5],[1,0.5]];portConstraint=eastwest;whiteSpace=wrap;html=1;" parent="zBzXpyPRaQ_3X7a6PqnA-77" vertex="1"><mxGeometry y="76" width="160" height="24" as="geometry"/></mxCell><mxCell id="zBzXpyPRaQ_3X7a6PqnA-86" value="" style="line;strokeWidth=1;fillColor=none;align=left;verticalAlign=middle;spacingTop=-1;spacingLeft=3;spacingRight=3;rotatable=0;labelPosition=right;points=[];portConstraint=eastwest;strokeColor=inherit;" parent="zBzXpyPRaQ_3X7a6PqnA-77" vertex="1"><mxGeometry y="100" width="160" height="8" as="geometry"/></mxCell><mxCell id="zBzXpyPRaQ_3X7a6PqnA-88" value="BaseClass" style="swimlane;fontStyle=1;align=center;verticalAlign=top;childLayout=stackLayout;horizontal=1;startSize=26;horizontalStack=0;resizeParent=1;resizeParentMax=0;resizeLast=0;collapsible=1;marginBottom=0;whiteSpace=wrap;html=1;" parent="WIyWlLk6GJQsqaUBKTNV-1" vertex="1"><mxGeometry x="-140" y="-260" width="160" height="160" as="geometry"/></mxCell><mxCell id="zBzXpyPRaQ_3X7a6PqnA-89" value="- id:int" style="text;strokeColor=none;fillColor=none;align=left;verticalAlign=top;spacingLeft=4;spacingRight=4;overflow=hidden;rotatable=0;points=[[0,0.5],[1,0.5]];portConstraint=eastwest;whiteSpace=wrap;html=1;" parent="zBzXpyPRaQ_3X7a6PqnA-88" vertex="1"><mxGeometry y="26" width="160" height="24" as="geometry"/></mxCell><mxCell id="zBzXpyPRaQ_3X7a6PqnA-90" value="- createdAt:LocalDateTime" style="text;strokeColor=none;fillColor=none;align=left;verticalAlign=top;spacingLeft=4;spacingRight=4;overflow=hidden;rotatable=0;points=[[0,0.5],[1,0.5]];portConstraint=eastwest;whiteSpace=wrap;html=1;" parent="zBzXpyPRaQ_3X7a6PqnA-88" vertex="1"><mxGeometry y="50" width="160" height="26" as="geometry"/></mxCell><mxCell id="zBzXpyPRaQ_3X7a6PqnA-91" value="- updatedAt:LocalDateTime" style="text;strokeColor=none;fillColor=none;align=left;verticalAlign=top;spacingLeft=4;spacingRight=4;overflow=hidden;rotatable=0;points=[[0,0.5],[1,0.5]];portConstraint=eastwest;whiteSpace=wrap;html=1;" parent="zBzXpyPRaQ_3X7a6PqnA-88" vertex="1"><mxGeometry y="76" width="160" height="24" as="geometry"/></mxCell><mxCell id="zBzXpyPRaQ_3X7a6PqnA-92" value="- createdBy:String" style="text;strokeColor=none;fillColor=none;align=left;verticalAlign=top;spacingLeft=4;spacingRight=4;overflow=hidden;rotatable=0;points=[[0,0.5],[1,0.5]];portConstraint=eastwest;whiteSpace=wrap;html=1;" parent="zBzXpyPRaQ_3X7a6PqnA-88" vertex="1"><mxGeometry y="100" width="160" height="26" as="geometry"/></mxCell><mxCell id="zBzXpyPRaQ_3X7a6PqnA-93" value="- updatedBy:String" style="text;strokeColor=none;fillColor=none;align=left;verticalAlign=top;spacingLeft=4;spacingRight=4;overflow=hidden;rotatable=0;points=[[0,0.5],[1,0.5]];portConstraint=eastwest;whiteSpace=wrap;html=1;" parent="zBzXpyPRaQ_3X7a6PqnA-88" vertex="1"><mxGeometry y="126" width="160" height="26" as="geometry"/></mxCell><mxCell id="zBzXpyPRaQ_3X7a6PqnA-97" value="" style="line;strokeWidth=1;fillColor=none;align=left;verticalAlign=middle;spacingTop=-1;spacingLeft=3;spacingRight=3;rotatable=0;labelPosition=right;points=[];portConstraint=eastwest;strokeColor=inherit;" parent="zBzXpyPRaQ_3X7a6PqnA-88" vertex="1"><mxGeometry y="152" width="160" height="8" as="geometry"/></mxCell><mxCell id="zBzXpyPRaQ_3X7a6PqnA-108" style="edgeStyle=orthogonalEdgeStyle;rounded=0;orthogonalLoop=1;jettySize=auto;html=1;exitX=0.25;exitY=0;exitDx=0;exitDy=0;entryX=0;entryY=0.5;entryDx=0;entryDy=0;" parent="WIyWlLk6GJQsqaUBKTNV-1" source="zBzXpyPRaQ_3X7a6PqnA-44" target="zBzXpyPRaQ_3X7a6PqnA-92" edge="1"><mxGeometry relative="1" as="geometry"><Array as="points"><mxPoint x="-470" y="36"/><mxPoint x="-320" y="36"/><mxPoint x="-320" y="-147"/></Array></mxGeometry></mxCell><mxCell id="zBzXpyPRaQ_3X7a6PqnA-109" style="edgeStyle=orthogonalEdgeStyle;rounded=0;orthogonalLoop=1;jettySize=auto;html=1;exitX=0;exitY=0;exitDx=0;exitDy=0;entryX=1.045;entryY=-0.073;entryDx=0;entryDy=0;entryPerimeter=0;" parent="WIyWlLk6GJQsqaUBKTNV-1" source="zBzXpyPRaQ_3X7a6PqnA-55" target="zBzXpyPRaQ_3X7a6PqnA-93" edge="1"><mxGeometry relative="1" as="geometry"/></mxCell><mxCell id="zBzXpyPRaQ_3X7a6PqnA-113" value="«interface»&lt;div&gt;&lt;i style=&quot;border-color: var(--border-color); text-align: left;&quot;&gt;BillGenerationStrategy&lt;/i&gt;&lt;br&gt;&lt;/div&gt;" style="html=1;whiteSpace=wrap;" parent="WIyWlLk6GJQsqaUBKTNV-1" vertex="1"><mxGeometry x="-1200" y="-73" width="160" height="50" as="geometry"/></mxCell><mxCell id="zBzXpyPRaQ_3X7a6PqnA-114" value="«interface»&lt;div&gt;&lt;i style=&quot;border-color: var(--border-color); text-align: left;&quot;&gt;SpotAllocationStrategy&lt;/i&gt;&lt;br&gt;&lt;/div&gt;" style="html=1;whiteSpace=wrap;" parent="WIyWlLk6GJQsqaUBKTNV-1" vertex="1"><mxGeometry x="-1220" y="42" width="160" height="50" as="geometry"/></mxCell><mxCell id="zBzXpyPRaQ_3X7a6PqnA-115" value="1" style="endArrow=open;html=1;endSize=12;startArrow=diamondThin;startSize=14;startFill=1;edgeStyle=orthogonalEdgeStyle;align=left;verticalAlign=bottom;rounded=0;exitX=0;exitY=0.5;exitDx=0;exitDy=0;entryX=1;entryY=0.25;entryDx=0;entryDy=0;" parent="WIyWlLk6GJQsqaUBKTNV-1" source="zBzXpyPRaQ_3X7a6PqnA-9" target="zBzXpyPRaQ_3X7a6PqnA-114" edge="1"><mxGeometry x="-1" y="3" relative="1" as="geometry"><mxPoint x="-720" y="320" as="sourcePoint"/><mxPoint x="-880" y="320" as="targetPoint"/></mxGeometry></mxCell><mxCell id="zBzXpyPRaQ_3X7a6PqnA-186" value="1" style="edgeLabel;html=1;align=center;verticalAlign=middle;resizable=0;points=[];" parent="zBzXpyPRaQ_3X7a6PqnA-115" vertex="1" connectable="0"><mxGeometry x="0.6049" y="-4" relative="1" as="geometry"><mxPoint as="offset"/></mxGeometry></mxCell><mxCell id="zBzXpyPRaQ_3X7a6PqnA-189" value="1" style="edgeLabel;html=1;align=center;verticalAlign=middle;resizable=0;points=[];" parent="zBzXpyPRaQ_3X7a6PqnA-115" vertex="1" connectable="0"><mxGeometry x="-0.6121" y="-5" relative="1" as="geometry"><mxPoint as="offset"/></mxGeometry></mxCell><mxCell id="zBzXpyPRaQ_3X7a6PqnA-123" style="edgeStyle=orthogonalEdgeStyle;rounded=0;orthogonalLoop=1;jettySize=auto;html=1;entryX=0.5;entryY=1;entryDx=0;entryDy=0;" parent="WIyWlLk6GJQsqaUBKTNV-1" source="zBzXpyPRaQ_3X7a6PqnA-117" target="zBzXpyPRaQ_3X7a6PqnA-22" edge="1"><mxGeometry relative="1" as="geometry"/></mxCell><mxCell id="zBzXpyPRaQ_3X7a6PqnA-117" value="EVParkingSpot&amp;nbsp;" style="swimlane;fontStyle=0;childLayout=stackLayout;horizontal=1;startSize=26;fillColor=none;horizontalStack=0;resizeParent=1;resizeParentMax=0;resizeLast=0;collapsible=1;marginBottom=0;whiteSpace=wrap;html=1;" parent="WIyWlLk6GJQsqaUBKTNV-1" vertex="1"><mxGeometry x="-341" y="440" width="140" height="52" as="geometry"/></mxCell><mxCell id="zBzXpyPRaQ_3X7a6PqnA-118" value="- Charger:string" style="text;strokeColor=none;fillColor=none;align=left;verticalAlign=top;spacingLeft=4;spacingRight=4;overflow=hidden;rotatable=0;points=[[0,0.5],[1,0.5]];portConstraint=eastwest;whiteSpace=wrap;html=1;" parent="zBzXpyPRaQ_3X7a6PqnA-117" vertex="1"><mxGeometry y="26" width="140" height="26" as="geometry"/></mxCell><mxCell id="zBzXpyPRaQ_3X7a6PqnA-124" style="edgeStyle=orthogonalEdgeStyle;rounded=0;orthogonalLoop=1;jettySize=auto;html=1;entryX=0.5;entryY=1;entryDx=0;entryDy=0;" parent="WIyWlLk6GJQsqaUBKTNV-1" source="zBzXpyPRaQ_3X7a6PqnA-121" target="zBzXpyPRaQ_3X7a6PqnA-22" edge="1"><mxGeometry relative="1" as="geometry"/></mxCell><mxCell id="zBzXpyPRaQ_3X7a6PqnA-121" value="LUXEParkingSpot" style="swimlane;fontStyle=0;childLayout=stackLayout;horizontal=1;startSize=26;fillColor=none;horizontalStack=0;resizeParent=1;resizeParentMax=0;resizeLast=0;collapsible=1;marginBottom=0;whiteSpace=wrap;html=1;" parent="WIyWlLk6GJQsqaUBKTNV-1" vertex="1"><mxGeometry x="-163" y="438" width="140" height="52" as="geometry"/></mxCell><mxCell id="zBzXpyPRaQ_3X7a6PqnA-122" value="- security:String" style="text;strokeColor=none;fillColor=none;align=left;verticalAlign=top;spacingLeft=4;spacingRight=4;overflow=hidden;rotatable=0;points=[[0,0.5],[1,0.5]];portConstraint=eastwest;whiteSpace=wrap;html=1;" parent="zBzXpyPRaQ_3X7a6PqnA-121" vertex="1"><mxGeometry y="26" width="140" height="26" as="geometry"/></mxCell><mxCell id="zBzXpyPRaQ_3X7a6PqnA-44" value="Gate" style="swimlane;fontStyle=1;align=center;verticalAlign=top;childLayout=stackLayout;horizontal=1;startSize=26;horizontalStack=0;resizeParent=1;resizeParentMax=0;resizeLast=0;collapsible=1;marginBottom=0;whiteSpace=wrap;html=1;fillColor=default;" parent="WIyWlLk6GJQsqaUBKTNV-1" vertex="1"><mxGeometry x="-750" y="410" width="160" height="134" as="geometry"><mxRectangle x="-140" y="230" width="70" height="30" as="alternateBounds"/></mxGeometry></mxCell><mxCell id="zBzXpyPRaQ_3X7a6PqnA-45" value="- operator: String&lt;span style=&quot;white-space: pre;&quot;&gt;&#9;&lt;/span&gt;" style="text;strokeColor=none;fillColor=none;align=left;verticalAlign=top;spacingLeft=4;spacingRight=4;overflow=hidden;rotatable=0;points=[[0,0.5],[1,0.5]];portConstraint=eastwest;whiteSpace=wrap;html=1;" parent="zBzXpyPRaQ_3X7a6PqnA-44" vertex="1"><mxGeometry y="26" width="160" height="24" as="geometry"/></mxCell><mxCell id="zBzXpyPRaQ_3X7a6PqnA-46" value="- gateNO: int" style="text;strokeColor=none;fillColor=none;align=left;verticalAlign=top;spacingLeft=4;spacingRight=4;overflow=hidden;rotatable=0;points=[[0,0.5],[1,0.5]];portConstraint=eastwest;whiteSpace=wrap;html=1;" parent="zBzXpyPRaQ_3X7a6PqnA-44" vertex="1"><mxGeometry y="50" width="160" height="26" as="geometry"/></mxCell><mxCell id="zBzXpyPRaQ_3X7a6PqnA-47" value="- gateType: &lt;b&gt;GateType&lt;/b&gt;" style="text;strokeColor=none;fillColor=none;align=left;verticalAlign=top;spacingLeft=4;spacingRight=4;overflow=hidden;rotatable=0;points=[[0,0.5],[1,0.5]];portConstraint=eastwest;whiteSpace=wrap;html=1;" parent="zBzXpyPRaQ_3X7a6PqnA-44" vertex="1"><mxGeometry y="76" width="160" height="24" as="geometry"/></mxCell><mxCell id="zBzXpyPRaQ_3X7a6PqnA-48" value="- gateStatus: &lt;b&gt;GateStatus&lt;/b&gt;" style="text;strokeColor=none;fillColor=none;align=left;verticalAlign=top;spacingLeft=4;spacingRight=4;overflow=hidden;rotatable=0;points=[[0,0.5],[1,0.5]];portConstraint=eastwest;whiteSpace=wrap;html=1;" parent="zBzXpyPRaQ_3X7a6PqnA-44" vertex="1"><mxGeometry y="100" width="160" height="26" as="geometry"/></mxCell><mxCell id="zBzXpyPRaQ_3X7a6PqnA-53" value="" style="line;strokeWidth=1;fillColor=none;align=left;verticalAlign=middle;spacingTop=-1;spacingLeft=3;spacingRight=3;rotatable=0;labelPosition=right;points=[];portConstraint=eastwest;strokeColor=inherit;" parent="zBzXpyPRaQ_3X7a6PqnA-44" vertex="1"><mxGeometry y="126" width="160" height="8" as="geometry"/></mxCell><mxCell id="zBzXpyPRaQ_3X7a6PqnA-126" value="1" style="endArrow=open;html=1;endSize=12;startArrow=diamondThin;startSize=14;startFill=1;edgeStyle=orthogonalEdgeStyle;align=left;verticalAlign=bottom;rounded=0;exitX=0;exitY=0.5;exitDx=0;exitDy=0;entryX=1;entryY=0.5;entryDx=0;entryDy=0;" parent="WIyWlLk6GJQsqaUBKTNV-1" source="zBzXpyPRaQ_3X7a6PqnA-5" target="zBzXpyPRaQ_3X7a6PqnA-113" edge="1"><mxGeometry x="-1" y="3" relative="1" as="geometry"><mxPoint x="-780" y="184.17000000000002" as="sourcePoint"/><mxPoint x="-940" y="184.17000000000002" as="targetPoint"/></mxGeometry></mxCell><mxCell id="zBzXpyPRaQ_3X7a6PqnA-187" value="1" style="edgeLabel;html=1;align=center;verticalAlign=middle;resizable=0;points=[];" parent="zBzXpyPRaQ_3X7a6PqnA-126" vertex="1" connectable="0"><mxGeometry x="0.5878" relative="1" as="geometry"><mxPoint as="offset"/></mxGeometry></mxCell><mxCell id="zBzXpyPRaQ_3X7a6PqnA-188" value="1" style="edgeLabel;html=1;align=center;verticalAlign=middle;resizable=0;points=[];" parent="zBzXpyPRaQ_3X7a6PqnA-126" vertex="1" connectable="0"><mxGeometry x="-0.4735" y="2" relative="1" as="geometry"><mxPoint as="offset"/></mxGeometry></mxCell><mxCell id="zBzXpyPRaQ_3X7a6PqnA-127" value="1" style="endArrow=open;html=1;endSize=12;startArrow=diamondThin;startSize=14;startFill=1;edgeStyle=orthogonalEdgeStyle;align=left;verticalAlign=bottom;rounded=0;exitX=0.25;exitY=1;exitDx=0;exitDy=0;entryX=0.171;entryY=-0.007;entryDx=0;entryDy=0;entryPerimeter=0;" parent="WIyWlLk6GJQsqaUBKTNV-1" source="zBzXpyPRaQ_3X7a6PqnA-11" target="zBzXpyPRaQ_3X7a6PqnA-44" edge="1"><mxGeometry x="-1" y="3" relative="1" as="geometry"><mxPoint x="-1000" y="400" as="sourcePoint"/><mxPoint x="-840" y="400" as="targetPoint"/></mxGeometry></mxCell><mxCell id="zBzXpyPRaQ_3X7a6PqnA-128" value="1" style="edgeLabel;html=1;align=center;verticalAlign=middle;resizable=0;points=[];" parent="zBzXpyPRaQ_3X7a6PqnA-127" vertex="1" connectable="0"><mxGeometry x="0.6763" relative="1" as="geometry"><mxPoint as="offset"/></mxGeometry></mxCell><mxCell id="zBzXpyPRaQ_3X7a6PqnA-198" value="2" style="edgeLabel;html=1;align=center;verticalAlign=middle;resizable=0;points=[];" parent="zBzXpyPRaQ_3X7a6PqnA-127" vertex="1" connectable="0"><mxGeometry x="0.6984" y="-1" relative="1" as="geometry"><mxPoint as="offset"/></mxGeometry></mxCell><mxCell id="zBzXpyPRaQ_3X7a6PqnA-129" value="&lt;b&gt;BillStatus&lt;/b&gt;" style="swimlane;fontStyle=0;childLayout=stackLayout;horizontal=1;startSize=26;fillColor=none;horizontalStack=0;resizeParent=1;resizeParentMax=0;resizeLast=0;collapsible=1;marginBottom=0;whiteSpace=wrap;html=1;" parent="WIyWlLk6GJQsqaUBKTNV-1" vertex="1" collapsed="1"><mxGeometry x="130" y="462" width="100" height="30" as="geometry"><mxRectangle x="160" y="430" width="170" height="52" as="alternateBounds"/></mxGeometry></mxCell><mxCell id="zBzXpyPRaQ_3X7a6PqnA-130" value="UNPAID,DISCOUNT,PAID" style="text;strokeColor=none;fillColor=none;align=left;verticalAlign=top;spacingLeft=4;spacingRight=4;overflow=hidden;rotatable=0;points=[[0,0.5],[1,0.5]];portConstraint=eastwest;whiteSpace=wrap;html=1;" parent="zBzXpyPRaQ_3X7a6PqnA-129" vertex="1"><mxGeometry y="26" width="170" height="26" as="geometry"/></mxCell><mxCell id="zBzXpyPRaQ_3X7a6PqnA-134" value="1" style="endArrow=open;html=1;endSize=12;startArrow=diamondThin;startSize=14;startFill=1;edgeStyle=orthogonalEdgeStyle;align=left;verticalAlign=bottom;rounded=0;entryX=0.5;entryY=0;entryDx=0;entryDy=0;exitX=0.5;exitY=1;exitDx=0;exitDy=0;" parent="WIyWlLk6GJQsqaUBKTNV-1" source="zBzXpyPRaQ_3X7a6PqnA-55" target="zBzXpyPRaQ_3X7a6PqnA-129" edge="1"><mxGeometry x="-1" y="3" relative="1" as="geometry"><mxPoint x="180" y="380" as="sourcePoint"/><mxPoint x="160" y="370" as="targetPoint"/></mxGeometry></mxCell><mxCell id="zBzXpyPRaQ_3X7a6PqnA-135" value="1" style="text;html=1;align=center;verticalAlign=middle;resizable=0;points=[];autosize=1;strokeColor=none;fillColor=none;" parent="WIyWlLk6GJQsqaUBKTNV-1" vertex="1"><mxGeometry x="170" y="420" width="30" height="30" as="geometry"/></mxCell><mxCell id="zBzXpyPRaQ_3X7a6PqnA-136" value="&lt;b&gt;PaymentMode&lt;/b&gt;" style="swimlane;fontStyle=0;childLayout=stackLayout;horizontal=1;startSize=26;fillColor=none;horizontalStack=0;resizeParent=1;resizeParentMax=0;resizeLast=0;collapsible=1;marginBottom=0;whiteSpace=wrap;html=1;" parent="WIyWlLk6GJQsqaUBKTNV-1" vertex="1" collapsed="1"><mxGeometry x="470" y="585" width="120" height="30" as="geometry"><mxRectangle x="500" y="510" width="140" height="70" as="alternateBounds"/></mxGeometry></mxCell><mxCell id="zBzXpyPRaQ_3X7a6PqnA-137" value="UPI,CREDIT_CARD,&lt;br&gt;DEBIT_CARD,CASH" style="text;strokeColor=none;fillColor=none;align=left;verticalAlign=top;spacingLeft=4;spacingRight=4;overflow=hidden;rotatable=0;points=[[0,0.5],[1,0.5]];portConstraint=eastwest;whiteSpace=wrap;html=1;" parent="zBzXpyPRaQ_3X7a6PqnA-136" vertex="1"><mxGeometry y="26" width="140" height="44" as="geometry"/></mxCell><mxCell id="zBzXpyPRaQ_3X7a6PqnA-140" value="&lt;b&gt;PaymentStatus&lt;/b&gt;" style="swimlane;fontStyle=0;childLayout=stackLayout;horizontal=1;startSize=26;fillColor=none;horizontalStack=0;resizeParent=1;resizeParentMax=0;resizeLast=0;collapsible=1;marginBottom=0;whiteSpace=wrap;html=1;" parent="WIyWlLk6GJQsqaUBKTNV-1" vertex="1" collapsed="1"><mxGeometry x="640" y="585" width="120" height="30" as="geometry"><mxRectangle x="500" y="510" width="140" height="70" as="alternateBounds"/></mxGeometry></mxCell><mxCell id="zBzXpyPRaQ_3X7a6PqnA-141" value="UPI,CREDIT_CARD,&lt;br&gt;DEBIT_CARD,CASH" style="text;strokeColor=none;fillColor=none;align=left;verticalAlign=top;spacingLeft=4;spacingRight=4;overflow=hidden;rotatable=0;points=[[0,0.5],[1,0.5]];portConstraint=eastwest;whiteSpace=wrap;html=1;" parent="zBzXpyPRaQ_3X7a6PqnA-140" vertex="1"><mxGeometry y="26" width="140" height="44" as="geometry"/></mxCell><mxCell id="zBzXpyPRaQ_3X7a6PqnA-142" value="1" style="endArrow=open;html=1;endSize=12;startArrow=diamondThin;startSize=14;startFill=1;edgeStyle=orthogonalEdgeStyle;align=left;verticalAlign=bottom;rounded=0;entryX=0.409;entryY=-0.148;entryDx=0;entryDy=0;entryPerimeter=0;" parent="WIyWlLk6GJQsqaUBKTNV-1" target="zBzXpyPRaQ_3X7a6PqnA-136" edge="1"><mxGeometry x="-1" y="3" relative="1" as="geometry"><mxPoint x="590" y="470" as="sourcePoint"/><mxPoint x="420" y="546" as="targetPoint"/></mxGeometry></mxCell><mxCell id="zBzXpyPRaQ_3X7a6PqnA-143" value="1" style="endArrow=open;html=1;endSize=12;startArrow=diamondThin;startSize=14;startFill=1;edgeStyle=orthogonalEdgeStyle;align=left;verticalAlign=bottom;rounded=0;entryX=0.366;entryY=0.02;entryDx=0;entryDy=0;entryPerimeter=0;exitX=0.582;exitY=0.963;exitDx=0;exitDy=0;exitPerimeter=0;" parent="WIyWlLk6GJQsqaUBKTNV-1" source="zBzXpyPRaQ_3X7a6PqnA-75" target="zBzXpyPRaQ_3X7a6PqnA-140" edge="1"><mxGeometry x="-1" y="3" relative="1" as="geometry"><mxPoint x="681" y="500" as="sourcePoint"/><mxPoint x="610" y="611" as="targetPoint"/></mxGeometry></mxCell><mxCell id="zBzXpyPRaQ_3X7a6PqnA-144" value="&lt;b&gt;VehicalType&lt;/b&gt;" style="swimlane;fontStyle=0;childLayout=stackLayout;horizontal=1;startSize=26;fillColor=none;horizontalStack=0;resizeParent=1;resizeParentMax=0;resizeLast=0;collapsible=1;marginBottom=0;whiteSpace=wrap;html=1;" parent="WIyWlLk6GJQsqaUBKTNV-1" vertex="1" collapsed="1"><mxGeometry x="-630" y="170" width="110" height="30" as="geometry"><mxRectangle x="-560" y="185" width="140" height="52" as="alternateBounds"/></mxGeometry></mxCell><mxCell id="zBzXpyPRaQ_3X7a6PqnA-145" value="BIKE,CAR,EV,LUXE" style="text;strokeColor=none;fillColor=none;align=left;verticalAlign=top;spacingLeft=4;spacingRight=4;overflow=hidden;rotatable=0;points=[[0,0.5],[1,0.5]];portConstraint=eastwest;whiteSpace=wrap;html=1;" parent="zBzXpyPRaQ_3X7a6PqnA-144" vertex="1"><mxGeometry y="26" width="140" height="26" as="geometry"/></mxCell><mxCell id="zBzXpyPRaQ_3X7a6PqnA-148" value="1" style="endArrow=open;html=1;endSize=12;startArrow=diamondThin;startSize=14;startFill=1;edgeStyle=orthogonalEdgeStyle;align=left;verticalAlign=bottom;rounded=0;exitX=0.025;exitY=-0.074;exitDx=0;exitDy=0;exitPerimeter=0;entryX=1;entryY=0.25;entryDx=0;entryDy=0;" parent="WIyWlLk6GJQsqaUBKTNV-1" source="zBzXpyPRaQ_3X7a6PqnA-25" target="zBzXpyPRaQ_3X7a6PqnA-144" edge="1"><mxGeometry x="-1" y="3" relative="1" as="geometry"><mxPoint x="-570" y="200" as="sourcePoint"/><mxPoint x="-410" y="200" as="targetPoint"/></mxGeometry></mxCell><mxCell id="zBzXpyPRaQ_3X7a6PqnA-149" value="1" style="edgeLabel;html=1;align=center;verticalAlign=middle;resizable=0;points=[];" parent="zBzXpyPRaQ_3X7a6PqnA-148" vertex="1" connectable="0"><mxGeometry x="-0.4752" y="-1" relative="1" as="geometry"><mxPoint as="offset"/></mxGeometry></mxCell><mxCell id="zBzXpyPRaQ_3X7a6PqnA-150" value="1" style="edgeLabel;html=1;align=center;verticalAlign=middle;resizable=0;points=[];" parent="zBzXpyPRaQ_3X7a6PqnA-148" vertex="1" connectable="0"><mxGeometry x="0.7619" y="-2" relative="1" as="geometry"><mxPoint as="offset"/></mxGeometry></mxCell><mxCell id="zBzXpyPRaQ_3X7a6PqnA-151" value="&lt;b&gt;ParkingSpotStatus&lt;/b&gt;" style="swimlane;fontStyle=0;childLayout=stackLayout;horizontal=1;startSize=26;fillColor=none;horizontalStack=0;resizeParent=1;resizeParentMax=0;resizeLast=0;collapsible=1;marginBottom=0;whiteSpace=wrap;html=1;" parent="WIyWlLk6GJQsqaUBKTNV-1" vertex="1" collapsed="1"><mxGeometry x="-610" y="220" width="110" height="30" as="geometry"><mxRectangle x="-610" y="220" width="160" height="70" as="alternateBounds"/></mxGeometry></mxCell><mxCell id="zBzXpyPRaQ_3X7a6PqnA-152" value="FILLED,EMPTY&lt;br&gt;,MAINTAINENCE" style="text;strokeColor=none;fillColor=none;align=left;verticalAlign=top;spacingLeft=4;spacingRight=4;overflow=hidden;rotatable=0;points=[[0,0.5],[1,0.5]];portConstraint=eastwest;whiteSpace=wrap;html=1;" parent="zBzXpyPRaQ_3X7a6PqnA-151" vertex="1"><mxGeometry y="26" width="160" height="44" as="geometry"/></mxCell><mxCell id="zBzXpyPRaQ_3X7a6PqnA-153" value="1" style="endArrow=open;html=1;endSize=12;startArrow=diamondThin;startSize=14;startFill=1;edgeStyle=orthogonalEdgeStyle;align=left;verticalAlign=bottom;rounded=0;exitX=-0.013;exitY=0.285;exitDx=0;exitDy=0;exitPerimeter=0;entryX=1;entryY=0.75;entryDx=0;entryDy=0;" parent="WIyWlLk6GJQsqaUBKTNV-1" source="zBzXpyPRaQ_3X7a6PqnA-26" target="zBzXpyPRaQ_3X7a6PqnA-151" edge="1"><mxGeometry x="-1" y="3" relative="1" as="geometry"><mxPoint x="-350" y="256" as="sourcePoint"/><mxPoint x="-506" y="250" as="targetPoint"/></mxGeometry></mxCell><mxCell id="zBzXpyPRaQ_3X7a6PqnA-154" value="1" style="edgeLabel;html=1;align=center;verticalAlign=middle;resizable=0;points=[];" parent="zBzXpyPRaQ_3X7a6PqnA-153" vertex="1" connectable="0"><mxGeometry x="-0.4752" y="-1" relative="1" as="geometry"><mxPoint as="offset"/></mxGeometry></mxCell><mxCell id="zBzXpyPRaQ_3X7a6PqnA-155" value="1" style="edgeLabel;html=1;align=center;verticalAlign=middle;resizable=0;points=[];" parent="zBzXpyPRaQ_3X7a6PqnA-153" vertex="1" connectable="0"><mxGeometry x="0.7619" y="-2" relative="1" as="geometry"><mxPoint as="offset"/></mxGeometry></mxCell><mxCell id="zBzXpyPRaQ_3X7a6PqnA-156" value="1" style="endArrow=open;html=1;endSize=12;startArrow=diamondThin;startSize=14;startFill=1;edgeStyle=orthogonalEdgeStyle;align=left;verticalAlign=bottom;rounded=0;exitX=1;exitY=0.5;exitDx=0;exitDy=0;entryX=0.5;entryY=0;entryDx=0;entryDy=0;" parent="WIyWlLk6GJQsqaUBKTNV-1" source="zBzXpyPRaQ_3X7a6PqnA-7" target="zBzXpyPRaQ_3X7a6PqnA-144" edge="1"><mxGeometry x="-1" y="3" relative="1" as="geometry"><mxPoint x="-630" y="100" as="sourcePoint"/><mxPoint x="-470" y="100" as="targetPoint"/></mxGeometry></mxCell><mxCell id="zBzXpyPRaQ_3X7a6PqnA-157" value="*" style="edgeLabel;html=1;align=center;verticalAlign=middle;resizable=0;points=[];" parent="zBzXpyPRaQ_3X7a6PqnA-156" vertex="1" connectable="0"><mxGeometry x="0.7856" y="-1" relative="1" as="geometry"><mxPoint as="offset"/></mxGeometry></mxCell><mxCell id="zBzXpyPRaQ_3X7a6PqnA-158" value="&lt;b&gt;ParkingSpotStatus&lt;/b&gt;" style="swimlane;fontStyle=0;childLayout=stackLayout;horizontal=1;startSize=26;fillColor=none;horizontalStack=0;resizeParent=1;resizeParentMax=0;resizeLast=0;collapsible=1;marginBottom=0;whiteSpace=wrap;html=1;" parent="WIyWlLk6GJQsqaUBKTNV-1" vertex="1" collapsed="1"><mxGeometry x="-1120" y="190" width="110" height="30" as="geometry"><mxRectangle x="-1110" y="150" width="160" height="70" as="alternateBounds"/></mxGeometry></mxCell><mxCell id="zBzXpyPRaQ_3X7a6PqnA-159" value="OPEN,CLOSED" style="text;strokeColor=none;fillColor=none;align=left;verticalAlign=top;spacingLeft=4;spacingRight=4;overflow=hidden;rotatable=0;points=[[0,0.5],[1,0.5]];portConstraint=eastwest;whiteSpace=wrap;html=1;" parent="zBzXpyPRaQ_3X7a6PqnA-158" vertex="1"><mxGeometry y="26" width="160" height="44" as="geometry"/></mxCell><mxCell id="zBzXpyPRaQ_3X7a6PqnA-160" value="1" style="endArrow=open;html=1;endSize=12;startArrow=diamondThin;startSize=14;startFill=1;edgeStyle=orthogonalEdgeStyle;align=left;verticalAlign=bottom;rounded=0;exitX=-0.01;exitY=0.755;exitDx=0;exitDy=0;exitPerimeter=0;entryX=0.658;entryY=-0.104;entryDx=0;entryDy=0;entryPerimeter=0;" parent="WIyWlLk6GJQsqaUBKTNV-1" source="zBzXpyPRaQ_3X7a6PqnA-10" target="zBzXpyPRaQ_3X7a6PqnA-158" edge="1"><mxGeometry x="-1" y="3" relative="1" as="geometry"><mxPoint x="-840" y="150" as="sourcePoint"/><mxPoint x="-680" y="150" as="targetPoint"/></mxGeometry></mxCell><mxCell id="zBzXpyPRaQ_3X7a6PqnA-190" value="1" style="edgeLabel;html=1;align=center;verticalAlign=middle;resizable=0;points=[];" parent="zBzXpyPRaQ_3X7a6PqnA-160" vertex="1" connectable="0"><mxGeometry x="-0.777" y="-2" relative="1" as="geometry"><mxPoint as="offset"/></mxGeometry></mxCell><mxCell id="zBzXpyPRaQ_3X7a6PqnA-162" value="1" style="endArrow=open;html=1;endSize=12;startArrow=diamondThin;startSize=14;startFill=1;edgeStyle=orthogonalEdgeStyle;align=left;verticalAlign=bottom;rounded=0;exitX=0.25;exitY=0;exitDx=0;exitDy=0;entryX=0;entryY=1;entryDx=0;entryDy=0;" parent="WIyWlLk6GJQsqaUBKTNV-1" source="zBzXpyPRaQ_3X7a6PqnA-77" target="zBzXpyPRaQ_3X7a6PqnA-144" edge="1"><mxGeometry x="-1" y="3" relative="1" as="geometry"><mxPoint x="-580" y="476.57" as="sourcePoint"/><mxPoint x="-420" y="476.57" as="targetPoint"/></mxGeometry></mxCell><mxCell id="zBzXpyPRaQ_3X7a6PqnA-163" value="1" style="edgeLabel;html=1;align=center;verticalAlign=middle;resizable=0;points=[];" parent="zBzXpyPRaQ_3X7a6PqnA-162" vertex="1" connectable="0"><mxGeometry x="0.8841" relative="1" as="geometry"><mxPoint as="offset"/></mxGeometry></mxCell><mxCell id="zBzXpyPRaQ_3X7a6PqnA-164" value="&lt;b&gt;GateType&lt;/b&gt;" style="swimlane;fontStyle=0;childLayout=stackLayout;horizontal=1;startSize=26;fillColor=none;horizontalStack=0;resizeParent=1;resizeParentMax=0;resizeLast=0;collapsible=1;marginBottom=0;whiteSpace=wrap;html=1;" parent="WIyWlLk6GJQsqaUBKTNV-1" vertex="1" collapsed="1"><mxGeometry x="-1000" y="420" width="90" height="30" as="geometry"><mxRectangle x="-1000" y="420" width="140" height="70" as="alternateBounds"/></mxGeometry></mxCell><mxCell id="zBzXpyPRaQ_3X7a6PqnA-165" value="ENTER_GATE,&lt;br&gt;EXIT_GATE" style="text;strokeColor=none;fillColor=none;align=left;verticalAlign=top;spacingLeft=4;spacingRight=4;overflow=hidden;rotatable=0;points=[[0,0.5],[1,0.5]];portConstraint=eastwest;whiteSpace=wrap;html=1;" parent="zBzXpyPRaQ_3X7a6PqnA-164" vertex="1"><mxGeometry y="26" width="140" height="44" as="geometry"/></mxCell><mxCell id="zBzXpyPRaQ_3X7a6PqnA-168" value="&lt;b&gt;GateStatus&lt;/b&gt;" style="swimlane;fontStyle=0;childLayout=stackLayout;horizontal=1;startSize=26;fillColor=none;horizontalStack=0;resizeParent=1;resizeParentMax=0;resizeLast=0;collapsible=1;marginBottom=0;whiteSpace=wrap;html=1;" parent="WIyWlLk6GJQsqaUBKTNV-1" vertex="1" collapsed="1"><mxGeometry x="-1000" y="490" width="90" height="30" as="geometry"><mxRectangle x="-1000" y="490" width="140" height="70" as="alternateBounds"/></mxGeometry></mxCell><mxCell id="zBzXpyPRaQ_3X7a6PqnA-169" value="OPEN,CLOSED" style="text;strokeColor=none;fillColor=none;align=left;verticalAlign=top;spacingLeft=4;spacingRight=4;overflow=hidden;rotatable=0;points=[[0,0.5],[1,0.5]];portConstraint=eastwest;whiteSpace=wrap;html=1;" parent="zBzXpyPRaQ_3X7a6PqnA-168" vertex="1"><mxGeometry y="26" width="140" height="44" as="geometry"/></mxCell><mxCell id="zBzXpyPRaQ_3X7a6PqnA-170" value="1" style="endArrow=open;html=1;endSize=12;startArrow=diamondThin;startSize=14;startFill=1;edgeStyle=orthogonalEdgeStyle;align=left;verticalAlign=bottom;rounded=0;entryX=1;entryY=0.25;entryDx=0;entryDy=0;exitX=0;exitY=0.5;exitDx=0;exitDy=0;" parent="WIyWlLk6GJQsqaUBKTNV-1" source="zBzXpyPRaQ_3X7a6PqnA-46" target="zBzXpyPRaQ_3X7a6PqnA-164" edge="1"><mxGeometry x="-1" y="3" relative="1" as="geometry"><mxPoint x="-750" y="466" as="sourcePoint"/><mxPoint x="-910" y="466" as="targetPoint"/></mxGeometry></mxCell><mxCell id="zBzXpyPRaQ_3X7a6PqnA-171" value="1" style="endArrow=open;html=1;endSize=12;startArrow=diamondThin;startSize=14;startFill=1;edgeStyle=orthogonalEdgeStyle;align=left;verticalAlign=bottom;rounded=0;entryX=1;entryY=0.5;entryDx=0;entryDy=0;exitX=0.018;exitY=0.107;exitDx=0;exitDy=0;exitPerimeter=0;" parent="WIyWlLk6GJQsqaUBKTNV-1" source="zBzXpyPRaQ_3X7a6PqnA-47" target="zBzXpyPRaQ_3X7a6PqnA-168" edge="1"><mxGeometry x="-1" y="3" relative="1" as="geometry"><mxPoint x="-750" y="499.24" as="sourcePoint"/><mxPoint x="-910" y="454.24" as="targetPoint"/></mxGeometry></mxCell><mxCell id="zBzXpyPRaQ_3X7a6PqnA-175" value="1" style="endArrow=open;html=1;endSize=12;startArrow=diamondThin;startSize=14;startFill=1;edgeStyle=orthogonalEdgeStyle;align=left;verticalAlign=bottom;rounded=0;entryX=0;entryY=0.5;entryDx=0;entryDy=0;exitX=0.448;exitY=-0.016;exitDx=0;exitDy=0;exitPerimeter=0;" parent="WIyWlLk6GJQsqaUBKTNV-1" source="zBzXpyPRaQ_3X7a6PqnA-55" target="zBzXpyPRaQ_3X7a6PqnA-36" edge="1"><mxGeometry x="-1" y="3" relative="1" as="geometry"><mxPoint x="230" y="17" as="sourcePoint"/><mxPoint x="230" y="123" as="targetPoint"/></mxGeometry></mxCell><mxCell id="zBzXpyPRaQ_3X7a6PqnA-176" value="1" style="edgeLabel;html=1;align=center;verticalAlign=middle;resizable=0;points=[];" parent="zBzXpyPRaQ_3X7a6PqnA-175" vertex="1" connectable="0"><mxGeometry x="0.6078" y="1" relative="1" as="geometry"><mxPoint as="offset"/></mxGeometry></mxCell><mxCell id="zBzXpyPRaQ_3X7a6PqnA-177" value="1" style="endArrow=open;html=1;endSize=12;startArrow=diamondThin;startSize=14;startFill=1;edgeStyle=orthogonalEdgeStyle;align=left;verticalAlign=bottom;rounded=0;entryX=1;entryY=0.5;entryDx=0;entryDy=0;exitX=0;exitY=0.5;exitDx=0;exitDy=0;" parent="WIyWlLk6GJQsqaUBKTNV-1" source="zBzXpyPRaQ_3X7a6PqnA-67" target="zBzXpyPRaQ_3X7a6PqnA-57" edge="1"><mxGeometry x="-1" y="3" relative="1" as="geometry"><mxPoint x="389.28999999999996" y="287" as="sourcePoint"/><mxPoint x="389.28999999999996" y="393" as="targetPoint"/></mxGeometry></mxCell><mxCell id="zBzXpyPRaQ_3X7a6PqnA-178" value="1" style="endArrow=open;html=1;endSize=12;startArrow=diamondThin;startSize=14;startFill=1;edgeStyle=orthogonalEdgeStyle;align=left;verticalAlign=bottom;rounded=0;exitX=0.22;exitY=1.25;exitDx=0;exitDy=0;exitPerimeter=0;entryX=0.75;entryY=0;entryDx=0;entryDy=0;" parent="WIyWlLk6GJQsqaUBKTNV-1" source="zBzXpyPRaQ_3X7a6PqnA-31" target="zBzXpyPRaQ_3X7a6PqnA-77" edge="1"><mxGeometry x="-1" y="3" relative="1" as="geometry"><mxPoint x="-330" y="280" as="sourcePoint"/><mxPoint x="-477" y="306" as="targetPoint"/></mxGeometry></mxCell><mxCell id="zBzXpyPRaQ_3X7a6PqnA-179" value="1" style="edgeLabel;html=1;align=center;verticalAlign=middle;resizable=0;points=[];" parent="zBzXpyPRaQ_3X7a6PqnA-178" vertex="1" connectable="0"><mxGeometry x="-0.4752" y="-1" relative="1" as="geometry"><mxPoint as="offset"/></mxGeometry></mxCell><mxCell id="zBzXpyPRaQ_3X7a6PqnA-180" value="1" style="edgeLabel;html=1;align=center;verticalAlign=middle;resizable=0;points=[];" parent="zBzXpyPRaQ_3X7a6PqnA-178" vertex="1" connectable="0"><mxGeometry x="0.7619" y="-2" relative="1" as="geometry"><mxPoint as="offset"/></mxGeometry></mxCell><mxCell id="zBzXpyPRaQ_3X7a6PqnA-181" value="1" style="endArrow=open;html=1;endSize=12;startArrow=diamondThin;startSize=14;startFill=1;edgeStyle=orthogonalEdgeStyle;align=left;verticalAlign=bottom;rounded=0;entryX=1;entryY=0.5;entryDx=0;entryDy=0;exitX=0.5;exitY=1;exitDx=0;exitDy=0;" parent="WIyWlLk6GJQsqaUBKTNV-1" source="zBzXpyPRaQ_3X7a6PqnA-33" target="zBzXpyPRaQ_3X7a6PqnA-80" edge="1"><mxGeometry x="-1" y="179" relative="1" as="geometry"><mxPoint x="405" y="386" as="sourcePoint"/><mxPoint x="405" y="492" as="targetPoint"/><mxPoint x="-132" y="-173" as="offset"/></mxGeometry></mxCell><mxCell id="zBzXpyPRaQ_3X7a6PqnA-182" value="1" style="edgeLabel;html=1;align=center;verticalAlign=middle;resizable=0;points=[];" parent="zBzXpyPRaQ_3X7a6PqnA-181" vertex="1" connectable="0"><mxGeometry x="-0.936" y="1" relative="1" as="geometry"><mxPoint y="1" as="offset"/></mxGeometry></mxCell><mxCell id="zBzXpyPRaQ_3X7a6PqnA-183" value="1" style="edgeLabel;html=1;align=center;verticalAlign=middle;resizable=0;points=[];" parent="zBzXpyPRaQ_3X7a6PqnA-181" vertex="1" connectable="0"><mxGeometry x="0.9308" y="-3" relative="1" as="geometry"><mxPoint x="1" as="offset"/></mxGeometry></mxCell><mxCell id="zBzXpyPRaQ_3X7a6PqnA-184" value="1" style="endArrow=open;html=1;endSize=12;startArrow=diamondThin;startSize=14;startFill=1;edgeStyle=orthogonalEdgeStyle;align=left;verticalAlign=bottom;rounded=0;exitX=0.199;exitY=0.982;exitDx=0;exitDy=0;entryX=0.106;entryY=-0.01;entryDx=0;entryDy=0;exitPerimeter=0;entryPerimeter=0;" parent="WIyWlLk6GJQsqaUBKTNV-1" source="zBzXpyPRaQ_3X7a6PqnA-2" target="zBzXpyPRaQ_3X7a6PqnA-11" edge="1"><mxGeometry x="-1" y="3" relative="1" as="geometry"><mxPoint x="-858" y="150" as="sourcePoint"/><mxPoint x="-998" y="150" as="targetPoint"/><Array as="points"><mxPoint x="-851" y="141"/><mxPoint x="-856" y="141"/></Array></mxGeometry></mxCell><mxCell id="zBzXpyPRaQ_3X7a6PqnA-185" value="*" style="edgeLabel;html=1;align=center;verticalAlign=middle;resizable=0;points=[];" parent="zBzXpyPRaQ_3X7a6PqnA-184" vertex="1" connectable="0"><mxGeometry x="0.1581" y="-5" relative="1" as="geometry"><mxPoint as="offset"/></mxGeometry></mxCell><mxCell id="zBzXpyPRaQ_3X7a6PqnA-191" value="1" style="endArrow=open;html=1;endSize=12;startArrow=diamondThin;startSize=14;startFill=1;edgeStyle=orthogonalEdgeStyle;align=left;verticalAlign=bottom;rounded=0;exitX=0.75;exitY=1;exitDx=0;exitDy=0;" parent="WIyWlLk6GJQsqaUBKTNV-1" source="zBzXpyPRaQ_3X7a6PqnA-33" edge="1"><mxGeometry x="-1" y="179" relative="1" as="geometry"><mxPoint x="414" y="486" as="sourcePoint"/><mxPoint x="-680" y="550" as="targetPoint"/><mxPoint x="-132" y="-173" as="offset"/><Array as="points"><mxPoint x="430" y="706"/><mxPoint x="-680" y="706"/></Array></mxGeometry></mxCell><mxCell id="zBzXpyPRaQ_3X7a6PqnA-192" value="1" style="edgeLabel;html=1;align=center;verticalAlign=middle;resizable=0;points=[];" parent="zBzXpyPRaQ_3X7a6PqnA-191" vertex="1" connectable="0"><mxGeometry x="-0.936" y="1" relative="1" as="geometry"><mxPoint y="1" as="offset"/></mxGeometry></mxCell><mxCell id="zBzXpyPRaQ_3X7a6PqnA-193" value="1" style="edgeLabel;html=1;align=center;verticalAlign=middle;resizable=0;points=[];" parent="zBzXpyPRaQ_3X7a6PqnA-191" vertex="1" connectable="0"><mxGeometry x="0.9308" y="-3" relative="1" as="geometry"><mxPoint x="1" as="offset"/></mxGeometry></mxCell><mxCell id="zBzXpyPRaQ_3X7a6PqnA-199" value="1" style="endArrow=open;html=1;endSize=12;startArrow=diamondThin;startSize=14;startFill=1;edgeStyle=orthogonalEdgeStyle;align=left;verticalAlign=bottom;rounded=0;entryX=1;entryY=0.5;entryDx=0;entryDy=0;exitX=0;exitY=0.5;exitDx=0;exitDy=0;" parent="WIyWlLk6GJQsqaUBKTNV-1" target="zBzXpyPRaQ_3X7a6PqnA-24" edge="1"><mxGeometry x="-1" y="3" relative="1" as="geometry"><mxPoint x="310" y="28" as="sourcePoint"/><mxPoint x="262" y="-136" as="targetPoint"/><Array as="points"><mxPoint x="136" y="28"/><mxPoint x="136" y="105"/><mxPoint x="-31" y="105"/><mxPoint x="-31" y="173"/></Array></mxGeometry></mxCell><mxCell id="zBzXpyPRaQ_3X7a6PqnA-200" value="1" style="edgeLabel;html=1;align=center;verticalAlign=middle;resizable=0;points=[];" parent="zBzXpyPRaQ_3X7a6PqnA-199" vertex="1" connectable="0"><mxGeometry x="0.6078" y="1" relative="1" as="geometry"><mxPoint as="offset"/></mxGeometry></mxCell><mxCell id="zBzXpyPRaQ_3X7a6PqnA-201" value="1" style="edgeLabel;html=1;align=center;verticalAlign=middle;resizable=0;points=[];" parent="zBzXpyPRaQ_3X7a6PqnA-199" vertex="1" connectable="0"><mxGeometry x="-0.7968" y="-3" relative="1" as="geometry"><mxPoint as="offset"/></mxGeometry></mxCell></root></mxGraphModel></diagram></mxfile>